<svg width="24" height="26" viewBox="0 0 24 26" fill="none" xmlns="http://www.w3.org/2000/svg">
<path d="M15.1541 6.73476C15.1541 8.59461 13.6463 10.1023 11.7865 10.1023C9.92663 10.1023 8.41891 8.59461 8.41891 6.73476C8.41891 4.8749 9.92663 3.36719 11.7865 3.36719C13.6463 3.36719 15.1541 4.8749 15.1541 6.73476Z" stroke="#E0E0E0" stroke-width="2.02054"/>
<path d="M8.41887 13.4707L4.8671 15.8386C3.93025 16.4631 3.36752 17.5146 3.36752 18.6405V20.3181C3.36752 21.186 4.07112 21.8896 4.93905 21.8896H11.7864" stroke="#E0E0E0" stroke-width="2.02054" stroke-linecap="round" stroke-linejoin="round"/>
<path d="M19.3635 6.73438V14.3114M19.3635 14.3114V18.0744C19.3635 18.8235 18.83 19.4769 18.0812 19.4533C16.843 19.4143 15.154 18.9702 15.154 16.8371C15.154 13.4695 19.3635 14.3114 19.3635 14.3114Z" stroke="#E0E0E0" stroke-width="1.68378" stroke-linecap="round" stroke-linejoin="round"/>
</svg>
