<svg width="20" height="24" viewBox="0 0 20 24" fill="none" xmlns="http://www.w3.org/2000/svg">
<path d="M14.5457 4.26467C14.7544 4.7082 15.2832 4.89854 15.7267 4.6898C16.1702 4.48107 16.3606 3.9523 16.1518 3.50877L15.3488 3.88672L14.5457 4.26467ZM3.61666 7.9873C4.49277 7.84512 4.49283 7.84552 4.49289 7.8459C4.49291 7.84599 4.49296 7.84634 4.49299 7.84652C4.49305 7.84688 4.49309 7.84713 4.49312 7.84729C4.49316 7.84759 4.49314 7.84748 4.49306 7.84695C4.4929 7.84591 4.49249 7.84322 4.49187 7.83896C4.49063 7.83043 4.48854 7.81558 4.48589 7.79485C4.48057 7.75336 4.47303 7.68849 4.46549 7.60364C4.45037 7.43354 4.43548 7.18541 4.43819 6.88586C4.44366 6.2806 4.52078 5.49746 4.79016 4.73148C5.05715 3.97229 5.50453 3.25121 6.24453 2.71483C6.98229 2.18007 8.08614 1.77429 9.7633 1.77429V0.886719V-0.000854492C7.79098 -0.000854492 6.30174 0.480938 5.20273 1.27754C4.10595 2.07252 3.47285 3.12659 3.11555 4.14255C2.76065 5.15171 2.66967 6.14371 2.66311 6.86982C2.6598 7.23595 2.67792 7.54255 2.69731 7.76077C2.70702 7.87007 2.71711 7.95776 2.72511 8.02027C2.72911 8.05155 2.7326 8.07657 2.73528 8.09491C2.73661 8.10408 2.73774 8.11158 2.73863 8.11736C2.73908 8.12025 2.73947 8.12271 2.73979 8.12474C2.73995 8.12575 2.74009 8.12665 2.74022 8.12744C2.74028 8.12784 2.74036 8.12835 2.74039 8.12855C2.74047 8.12903 2.74055 8.12949 3.61666 7.9873ZM9.7633 0.886719V1.77429C11.2681 1.77429 12.31 2.10125 13.0382 2.55144C13.7643 3.00034 14.2364 3.60746 14.5457 4.26467L15.3488 3.88672L16.1518 3.50877C15.7204 2.59203 15.0353 1.69915 13.9716 1.04154C12.91 0.385212 11.5295 -0.000854492 9.7633 -0.000854492V0.886719Z" fill="#E0E0E0"/>
<path d="M15.9763 8.43164H3.55029C2.07971 8.43164 0.887573 9.62378 0.887573 11.0944V20.4139C0.887573 21.8845 2.07971 23.0766 3.55029 23.0766H15.9763C17.4469 23.0766 18.639 21.8845 18.639 20.4139V11.0944C18.639 9.62378 17.4469 8.43164 15.9763 8.43164Z" stroke="#E0E0E0" stroke-width="1.77515"/>
<circle cx="9.76331" cy="15.9752" r="2.66272" stroke="#E0E0E0" stroke-width="1.77515"/>
</svg>
