<svg width="35" height="26" viewBox="0 0 35 26" fill="none" xmlns="http://www.w3.org/2000/svg">
<path d="M26.573 6.73476C26.573 8.59461 25.0653 10.1023 23.2055 10.1023C21.3456 10.1023 19.8379 8.59461 19.8379 6.73476C19.8379 4.8749 21.3456 3.36719 23.2055 3.36719C25.0653 3.36719 26.573 4.8749 26.573 6.73476Z" stroke="#E0E0E0" stroke-width="2.02054"/>
<path d="M16.2861 15.8386L17.0359 15.3387C18.8629 14.1207 21.0096 13.4707 23.2054 13.4707C25.4012 13.4707 27.5479 14.1207 29.375 15.3387L30.1248 15.8386C31.0616 16.4631 31.6243 17.5146 31.6243 18.6405V20.3181C31.6243 21.186 30.9207 21.8896 30.0528 21.8896H23.2054H16.358C15.4901 21.8896 14.7865 21.186 14.7865 20.3181V18.6405C14.7865 17.5146 15.3492 16.4631 16.2861 15.8386Z" stroke="#E0E0E0" stroke-width="2.02054" stroke-linecap="round" stroke-linejoin="round"/>
<path d="M15.1541 6.73476C15.1541 8.59461 13.6464 10.1023 11.7865 10.1023C9.92666 10.1023 8.41895 8.59461 8.41895 6.73476C8.41895 4.8749 9.92666 3.36719 11.7865 3.36719C13.6464 3.36719 15.1541 4.8749 15.1541 6.73476Z" stroke="#E0E0E0" stroke-width="2.02054"/>
<path d="M11.7865 13.4707C9.59065 13.4707 7.44396 14.1207 5.61692 15.3387L4.86713 15.8386C3.93028 16.4631 3.36755 17.5146 3.36755 18.6405V20.3181C3.36755 21.186 4.07115 21.8896 4.93909 21.8896H11" stroke="#E0E0E0" stroke-width="2.02054" stroke-linecap="round" stroke-linejoin="round"/>
</svg>
