<svg width="24" height="24" viewBox="0 0 24 24" fill="none" xmlns="http://www.w3.org/2000/svg">
<g clip-path="url(#clip0_24_425)">
<path d="M4.43689 15.4004C1.45842 13.9112 1.45842 9.66111 4.43689 8.17187L13.1693 3.80566C13.617 3.58189 14.1436 3.90683 14.1439 4.40723L14.1439 19.1641C14.1439 19.6647 13.6171 19.9903 13.1693 19.7666L4.43689 15.4004Z" stroke="#898989" stroke-width="2.02054"/>
<path d="M18.5216 16.8379C19.3104 16.6227 20.0399 16.1454 20.6211 15.45C21.433 14.4784 21.8892 13.1606 21.8892 11.7865C21.8892 10.4125 21.433 9.09471 20.6211 8.12311C20.0399 7.42765 19.3104 6.95033 18.5216 6.73519" stroke="#898989" stroke-width="1.68378" stroke-linecap="round"/>
<path d="M17.6797 11.2757C17.6797 11.0931 17.8332 10.9393 18.0019 11.0092C18.104 11.0515 18.1969 11.1135 18.275 11.1917C18.3532 11.2699 18.4152 11.3627 18.4575 11.4648C18.4998 11.567 18.5216 11.6765 18.5216 11.787C18.5216 11.8976 18.4998 12.007 18.4575 12.1092C18.4152 12.2113 18.3532 12.3041 18.275 12.3823C18.1969 12.4605 18.104 12.5225 18.0019 12.5648C17.8332 12.6347 17.6797 12.4809 17.6797 12.2983L17.6797 11.787L17.6797 11.2757Z" fill="#898989" stroke="#898989" stroke-width="0.841892"/>
</g>
<defs>
<clipPath id="clip0_24_425">
<rect width="23.573" height="23.573" fill="white"/>
</clipPath>
</defs>
</svg>
